# AST/ASF file generated using VICON BodyLanguage
# -----------------------------------------------
:version 1.10
:name VICON
:units
  mass 1.0
  length 0.45
  angle deg
:documentation
   .ast/.asf automatically generated from VICON data using
   VICON BodyBuilder and BodyLanguage model FoxedUp or BRILLIANT.MOD
:root
   order TX TY TZ RX RY RZ
   axis XYZ
   position 0 0 0  
   orientation 0 0 0 
:bonedata
  begin
     id 1 
     name lhipjoint
     direction 0.54267 -0.795011 0.271047 
     length 2.39899 
     axis 0 0 0  XYZ
  end
  begin
     id 2 
     name lfemur
     direction 0.34202 -0.939693 0  
     length 7.49701  
     axis 0 0 20  XYZ
    dof rx ry rz
    limits (-160.0 20.0)
           (-70.0 70.0)
           (-60.0 70.0)
  end
  begin
     id 3 
     name ltibia
     direction 0.34202 -0.939693 0   
     length 8.1668   
     axis 0 0 20   XYZ
    dof rx
    limits (-10.0 170.0)
  end
  begin
     id 4 
     name lfoot
     direction 0.0736283 -0.202292 0.976554   
     length 2.13544   
     axis -90 7.62852e-016 20   XYZ
    dof rx rz
    limits (-45.0 90.0)
           (-70.0 20.0)
  end
  begin
     id 5 
     name ltoes
     direction 1.53557e-011 -4.22024e-011 1   
     length 1.07411   
     axis -90 7.62852e-016 20   XYZ
    dof rx
    limits (-90.0 20.0)
  end
  begin
     id 6 
     name rhipjoint
     direction -0.538061 -0.797813 0.272002   
     length 2.39057  
     axis 0 0 0  XYZ 
  end
  begin
     id 7 
     name rfemur
     direction -0.34202 -0.939693 0   
     length 7.50152   
     axis 0 0 -20   XYZ
    dof rx ry rz
    limits (-160.0 20.0)
           (-70.0 70.0)
           (-70.0 60.0)
  end
  begin
     id 8 
     name rtibia
     direction -0.34202 -0.939693 0   
     length 8.05793   
     axis 0 0 -20   XYZ
    dof rx
    limits (-10.0 170.0)
 end
 begin
     id 9 
     name rfoot
     direction -0.0765195 -0.210236 0.974652   
     length 2.28698  
     axis -90 -7.62852e-016 -20   XYZ
    dof rx rz
    limits (-45.0 90.0)
           (-20.0 70.0)
  end
  begin
     id 10 
     name rtoes
     direction -1.53542e-011 -4.21847e-011 1   
     length 1.14762   
     axis -90 -7.62852e-016 -20   XYZ
    dof rx
    limits (-90.0 20.0)
  end
  begin
     id 11 
     name lowerback
     direction -0.0217239 0.996592 -0.0795765   
     length 2.08176   
     axis 0 0 0   XYZ
    dof rx ry rz
    limits (-20.0 45.0)
           (-30.0 30.0)
           (-30.0 30.0)
  end
  begin
     id 12 
     name upperback
     direction -0.00563773 0.999651 -0.0258155   
     length 2.08898   
     axis 0 0 0   XYZ
    dof rx ry rz
    limits (-20.0 45.0)
           (-30.0 30.0)
           (-30.0 30.0)
  end
  begin
     id 13 
     name thorax
     direction 0.0032706 0.999923 0.0119599   
     length 2.0968   
     axis 0 0 0   XYZ
    dof rx ry rz
    limits (-20.0 45.0)
           (-30.0 30.0)
           (-30.0 30.0)
  end
  begin
     id 14 
     name lowerneck
     direction -0.0285886 0.99568 0.0883427   
     length 1.81272   
     axis 0 0 0   XYZ
    dof rx ry rz
    limits (-20.0 45.0)
           (-30.0 30.0)
           (-30.0 30.0)
  end
  begin
     id 15 
     name upperneck
     direction 0.0807535 0.97985 -0.18268   
     length 1.82518   
     axis 0 0 0   XYZ
    dof rx ry rz
    limits (-20.0 45.0)
           (-30.0 30.0)
           (-30.0 30.0)
  end
  begin
     id 16
     name head
     direction 0.0236605 0.997053 -0.0729767  
     length 1.84443  
     axis 0 0 0   XYZ
    dof rx ry rz
    limits (-20.0 45.0)
           (-30.0 30.0)
           (-30.0 30.0)
  end
  begin
     id 17 
     name lclavicle
     direction 0.918986 0.39378 -0.0200683  
     length 3.27822  
     axis 0 0 0   XYZ
    dof ry rz
    limits (-20.0 10.0)
           (0.0 20.0)
  end
  begin
     id 18 
     name lhumerus
     direction 1 -4.4897e-011 2.09544e-027   
     length 5.5568   
     axis 180 -30 -90   XYZ
    dof rx ry rz
    limits (-60.0 90.0)
           (-90.0 90.0)
           (-90.0 90.0)
  end
  begin
     id 19
     name lradius
     direction 1 -4.48957e-011 -1.27696e-026   
     length 3.63979   
     axis 180 -30 -90   XYZ
    dof rx
    limits (-10.0 170.0)
  end
  begin
     id 20
     name lwrist
     direction 1 -4.49001e-011 -1.49001e-026   
     length 1.8199   
     axis 9.0955e-015 90 90   XYZ
    dof ry
    limits (-180.0 0.0)
 end
  begin
     id 21 
     name lhand
     direction 1 -4.48709e-011 -2.9758e-026   
     length 0.569419   
     axis 1.90115e-014 90 90   XYZ
    dof rx rz
    limits (-90.0 90.0)
           (-45.0 45.0)
  end
  begin
     id 22 
     name lfingers
     direction 1 -4.49175e-011 -5.96505e-026   
     length 0.45908   
     axis 3.80223e-014 90 90   XYZ
    dof rx
    limits (0.0 90.0)
  end
  begin
     id 23
     name lthumb
     direction 0.707107 -6.34864e-011 0.707107   
     length 0.65915   
     axis -90 45 -3.84942e-014   XYZ
    dof rx rz
    limits (-45.0 45.0)
           (-45.0 45.0)
  end
  begin
     id 24 
     name rclavicle
     direction -0.911913 0.396426 -0.106115   
     length 3.46301  
     axis 0 0 0   XYZ 
    dof ry rz
    limits (-10.0 20.0)
           (-20.0 0.0)
  end
  begin
     id 25 
     name rhumerus
     direction -1 -4.48965e-011 7.78516e-028  
     length 5.34339   
     axis 180 30 90   XYZ
    dof rx ry rz
    limits (-90.0 60.0)
           (-90.0 90.0)
           (-90.0 90.0)
  end
  begin
     id 26 
     name rradius
     direction -1 -4.48948e-011 -5.79823e-027   
     length 3.65101   
     axis 180 30 90   XYZ
    dof rx
    limits (-10.0 170.0)
  end
  begin
     id 27 
     name rwrist
     direction -1 -4.48995e-011 -1.48996e-026   
     length 1.8255   
     axis 9.0955e-015 -90 -90   XYZ
    dof ry
    limits (-180.0 0.0)
  end
  begin
     id 28
     name rhand
     direction -1 -4.48957e-011 -2.97937e-026   
     length 0.694249   
     axis 1.90115e-014 -90 -90   XYZ
    dof rx rz
    limits (-90.0 90.0)
           (-45.0 45.0)
  end
  begin
     id 29
     name rfingers
     direction -1 -4.4898e-011 -5.95943e-026   
     length 0.559721   
     axis 3.80223e-014 -90 -90   XYZ
    dof rx
    limits (0.0 90.0)
  end
  begin
     id 30
     name rthumb
     direction -0.707107 -6.34969e-011 0.707107   
     length 0.803651   
     axis -90 -45 3.84942e-014   XYZ
    dof rx rz
    limits (-45.0 45.0)
           (-45.0 45.0)
  end
:hierarchy
  begin
    root lhipjoint rhipjoint lowerback
    lhipjoint lfemur
    lfemur ltibia
    ltibia lfoot
    lfoot ltoes
    rhipjoint rfemur
    rfemur rtibia
    rtibia rfoot
    rfoot rtoes
    lowerback upperback
    upperback thorax
    thorax lowerneck lclavicle rclavicle
    lowerneck upperneck
    upperneck head
    lclavicle lhumerus
    lhumerus lradius
    lradius lwrist
    lwrist lhand lthumb
    lhand lfingers
    rclavicle rhumerus
    rhumerus rradius
    rradius rwrist
    rwrist rhand rthumb
    rhand rfingers
  end

#!OML:ASF H:\Terrain\Walking\May29\JustinRory\rory.ASF
:FULLY-SPECIFIED
:DEGREES
40
root 4.13282 18.7706 28.0241 -176.083 0.516113 184.757
lowerback 4.26139 -1.15157 4.43001
upperback 2.02137 -1.1026 3.12118
thorax -0.338451 -0.434191 0.773727
lowerneck -11.1394 -4.52493 -1.86002
upperneck 17.4001 -5.35779 -0.51228
head 7.20427 -2.57632 -0.346277
rclavicle 5.26779e-015 -2.74323e-014
rhumerus -42.5172 -21.4311 -70.2613
rradius 33.9305
rwrist 5.17643
rhand -13.2593 30.9454
rfingers 7.12502
rthumb 12.8432 1.36057
lclavicle 5.26779e-015 -2.74323e-014
lhumerus -30.0778 -5.62799 85.4168
lradius 39.9713
lwrist 5.53621
lhand -21.4843 13.8636
lfingers 7.12502
lthumb 4.90669 43.7867
rfemur -16.4933 9.65505 26.2726
rtibia 26.6183
rfoot -9.06472 -5.45592
rtoes 17.2508
lfemur -15.6445 9.23349 -11.6299
ltibia 68.6952
lfoot 11.5359 0.380382
ltoes -43.7776
41
root 4.12225 18.7738 27.8661 -176.07 0.751609 184.849
lowerback 4.27073 -1.02396 4.59659
upperback 2.14278 -0.929015 3.04045
thorax -0.219343 -0.341747 0.589125
lowerneck -11.3007 -4.79394 -1.98385
upperneck 17.5482 -5.68269 -0.589839
head 7.28482 -2.74593 -0.388754
rclavicle -9.54166e-015 -2.42517e-014
rhumerus -41.8382 -20.5891 -70.93
rradius 34.4019
rwrist 4.95868
rhand -12.3071 31.1806
rfingers 7.12502
rthumb 13.761 1.65567
lclavicle -9.54166e-015 -2.42517e-014
lhumerus -30.5399 -5.24084 85.0533
lradius 39.3474
lwrist 4.88261
lhand -21.5674 12.9084
lfingers 7.12502
lthumb 4.82645 42.8334
rfemur -15.9007 9.44438 26.4354
rtibia 26.7141
rfoot -9.86913 -5.20437
rtoes 18.2958
lfemur -16.8571 9.49301 -11.4831
ltibia 69.3601
lfoot 8.69865 0.97189
ltoes -40.855
42
root 4.10804 18.7719 27.6989 -175.945 1.07031 184.667
lowerback 4.01756 -0.629195 4.65374
upperback 2.22864 -0.450728 2.65338
thorax 0.018914 -0.10684 0.135611
lowerneck -11.3747 -5.12197 -1.50312
upperneck 17.6915 -6.2144 -0.624501
head 7.32947 -2.96922 -0.532825
rclavicle -1.05356e-014 -3.33958e-014
rhumerus -41.5489 -20.59 -71.4819
rradius 35.0652
rwrist 4.81138
rhand -11.6016 31.3413
rfingers 7.12502
rthumb 14.4409 1.86374
lclavicle -1.05356e-014 -3.33958e-014
lhumerus -30.9352 -5.55547 84.5956
lradius 38.7124
lwrist 4.36261
lhand -20.5036 16.8718
lfingers 7.12502
lthumb 5.85358 46.7709
rfemur -15.5004 9.23409 26.27
rtibia 26.8517
rfoot -10.6008 -4.96263
rtoes 19.1123
lfemur -18.2455 9.8337 -11.7913
ltibia 69.8221
lfoot 6.24361 1.49249
ltoes -41.239
43
root 4.0992 18.7745 27.5411 -175.829 1.29186 184.659
lowerback 3.98628 -0.657271 4.65411
upperback 2.06126 -0.494725 2.62521
thorax -0.137251 -0.138427 0.108339
lowerneck -10.6871 -5.02064 -1.92595
upperneck 17.6138 -6.02333 -0.404067
head 7.20405 -2.87788 -0.354269
rclavicle -7.55382e-015 1.39149e-014
rhumerus -41.2004 -19.158 -72.0397
rradius 35.5949
rwrist 4.65804
rhand -10.8535 31.4916
rfingers 7.12502
rthumb 15.1616 2.06705
lclavicle -7.55382e-015 1.39149e-014
lhumerus -32.0216 -4.52627 84.1223
lradius 38.1362
lwrist 3.72966
lhand -19.2171 21.9936
lfingers 7.12502
lthumb 7.0956 51.8547
rfemur -15.0584 9.0935 26.3015
rtibia 26.9685
rfoot -11.2915 -4.75681
rtoes 20.1591
lfemur -19.6632 10.0924 -11.8524
ltibia 70.1284
lfoot 4.06684 2.05822
ltoes -42.0009
44
root 4.09951 18.7672 27.3952 -175.757 1.42308 184.858
lowerback 4.10966 -0.76556 4.7215
upperback 3.11487 -0.59877 2.77301
thorax 0.875264 -0.127507 0.226694
lowerneck -14.9715 -5.01287 -2.37197
upperneck 18.8374 -5.9704 -0.197606
head 8.39371 -2.88426 -0.348926
rclavicle 6.16232e-015 -1.27222e-014
rhumerus -38.01 -18.5538 -73.1538
rradius 35.7394
rwrist 4.66766
rhand -10.3288 31.5584
rfingers 7.12502
rthumb 15.667 2.17268
lclavicle 6.16232e-015 -1.27222e-014
lhumerus -30.3719 -3.19478 83.6608
lradius 37.3794
lwrist 3.32921
lhand -19.5201 23.2525
lfingers 7.12502
lthumb 6.8031 53.1232
rfemur -14.6465 8.86997 26.6401
rtibia 27.0695
rfoot -11.6301 -4.79893
rtoes 18.0504
lfemur -21.0912 10.3406 -11.6099
ltibia 70.3029
lfoot 2.87741 1.99625
ltoes -42.1219
45
root 4.09512 18.764 27.2427 -175.555 1.91039 185.07
lowerback 3.99307 -0.697597 4.79698
upperback 3.57495 -0.497711 2.86244
thorax 1.41813 -0.0452522 0.273866
lowerneck -16.7964 -5.06312 -2.81855
upperneck 19.4179 -5.95271 -0.0154266
head 8.94151 -2.89219 -0.273286
rclavicle -6.95746e-016 3.97569e-016
rhumerus -36.2683 -17.6151 -73.7582
rradius 36.0841
rwrist 4.34178
rhand -10.0123 31.1714
rfingers 7.12502
rthumb 15.9718 1.80986
lclavicle -6.95746e-016 3.97569e-016
lhumerus -30.0469 -1.89295 83.2668
lradius 36.8158
lwrist 2.99506
lhand -19.8673 22.4591
lfingers 7.12502
lthumb 6.46796 52.3403
rfemur -14.5311 8.55815 26.9862
rtibia 27.0847
rfoot -11.5836 -4.7575
rtoes 12.4739
lfemur -22.4742 10.8621 -11.4365
ltibia 70.3014
lfoot 2.00895 1.48705
ltoes -42.2978
46
root 4.08247 18.7628 27.0869 -175.466 2.48501 185.385
lowerback 4.07248 -0.560598 5.11543
upperback 3.89206 -0.283608 2.88581
thorax 1.70714 0.0913636 0.117065
lowerneck -18.1465 -5.03398 -3.04849
upperneck 19.8457 -5.84987 0.0659934
head 9.34339 -2.85302 -0.238043
rclavicle 2.98177e-016 -6.40087e-014
rhumerus -34.9809 -16.9671 -74.1216
rradius 36.3908
rwrist 4.07455
rhand -9.32266 31.4604
rfingers 7.12502
rthumb 16.6358 2.1533
lclavicle 2.98177e-016 -6.40087e-014
lhumerus -29.9364 -0.902143 82.8285
lradius 36.0963
lwrist 2.58557
lhand -19.8308 22.48
lfingers 7.12502
lthumb 6.50313 52.3601
rfemur -14.1549 8.25122 27.38
rtibia 26.9924
rfoot -11.6552 -4.36527
rtoes 9.82492
lfemur -23.5896 11.3904 -11.1417
ltibia 70.1019
lfoot 0.936758 0.894206
ltoes -41.8721
47
root 4.06968 18.7342 26.9329 -175.517 2.66806 185.58
lowerback 4.22211 -0.518162 5.34405
upperback 4.12505 -0.195706 2.86504
thorax 1.86743 0.157918 -0.0316745
lowerneck -18.9785 -5.03247 -3.05258
upperneck 20.0668 -5.81464 -0.0193493
head 9.56866 -2.84797 -0.287503
rclavicle -1.98785e-015 -3.02153e-014
rhumerus -33.9756 -16.4379 -74.3183
rradius 36.6084
rwrist 3.94094
rhand -8.48323 32.1026
rfingers 7.12502
rthumb 17.4438 2.8653
lclavicle -1.98785e-015 -3.02153e-014
lhumerus -30.0895 -0.191363 82.3626
lradius 35.4365
lwrist 2.09222
lhand -19.6772 23.664
lfingers 7.12502
lthumb 6.65148 53.5395
rfemur -13.3806 8.26396 27.5994
rtibia 26.8951
rfoot -12.0274 -4.33129
rtoes 10.7935
lfemur -24.6126 11.5239 -10.906
ltibia 69.7627
lfoot -0.447277 0.644332
ltoes -39.3694
48
root 4.05876 18.7095 26.7755 -175.364 3.01188 185.608
lowerback 4.01523 -0.379366 5.30867
upperback 4.31481 -0.0297525 2.80097
thorax 2.18642 0.252512 -0.0798575
lowerneck -19.4476 -5.08169 -2.96528
upperneck 20.1394 -5.87067 -0.159216
head 9.67248 -2.88569 -0.371688
rclavicle -1.13307e-014 3.97569e-015
rhumerus -33.0587 -15.7876 -74.4805
rradius 36.9142
rwrist 3.57361
rhand -7.88778 31.5646
rfingers 7.12502
rthumb 18.0168 2.37913
lclavicle -1.13307e-014 3.97569e-015
lhumerus -30.4494 0.467458 81.8862
lradius 34.9665
lwrist 2.02816
lhand -19.8336 23.7734
lfingers 7.12502
lthumb 6.50048 53.6536
rfemur -12.858 8.48312 27.606
rtibia 26.8297
rfoot -12.4904 -4.26596
rtoes 11.9652
lfemur -25.8321 11.7945 -10.9105
ltibia 69.2586
lfoot -1.68785 0.680969
ltoes -37.317
49
root 4.04815 18.7022 26.6159 -175.134 3.46834 185.489
lowerback 3.78714 -0.180089 5.07032
upperback 4.39223 0.200968 2.69295
thorax 2.40274 0.363494 -0.0611559
lowerneck -19.8041 -5.10015 -2.9126
upperneck 20.3803 -5.88759 -0.212844
head 9.81918 -2.89256 -0.414318
rclavicle 2.36554e-014 5.96354e-014
rhumerus -32.3441 -15.2083 -74.5035
rradius 37.2771
rwrist 3.04041
rhand -6.87573 31.1413
rfingers 7.12502
rthumb 18.9903 2.04836
lclavicle 2.36554e-014 5.96354e-014
lhumerus -30.9173 1.02505 81.4252
lradius 34.3192
lwrist 2.62121
lhand -20.4917 22.2826
lfingers 7.12502
lthumb 5.86507 52.1814
rfemur -12.4973 8.53479 27.4437
rtibia 26.749
rfoot -12.7855 -3.9503
rtoes 13.0972
lfemur -27.0711 12.1468 -11.1424
ltibia 68.5434
lfoot -2.61652 0.954658
ltoes -37.7198
50
root 4.03341 18.6921 26.4633 -174.864 3.76973 185.488
lowerback 3.67059 -0.00500776 5.00686
upperback 4.31618 0.412739 2.61109
thorax 2.39754 0.460404 -0.113757
lowerneck -19.9283 -5.13275 -2.81696
upperneck 20.6126 -5.9129 -0.364773
head 9.91633 -2.90981 -0.492774
rclavicle -2.09718e-014 2.10712e-014
rhumerus -31.8433 -14.8192 -74.3098
rradius 37.4959
rwrist 2.80985
rhand -6.18291 31.957
rfingers 7.12502
rthumb 19.6565 2.93076
lclavicle -2.09718e-014 2.10712e-014
lhumerus -31.3915 1.90982 80.7856
lradius 33.4997
lwrist 2.48914
lhand -20.106 21.698
lfingers 7.12502
lthumb 6.23745 51.5861
rfemur -12.2291 8.26317 27.3902
rtibia 26.7148
rfoot -13.1818 -3.61566
rtoes 13.0042
lfemur -28.3155 12.2364 -11.2753
ltibia 67.6318
lfoot -3.64261 1.14982
ltoes -36.7628
51
root 4.0213 18.673 26.3173 -174.761 4.14679 185.857
lowerback 3.73676 0.19206 5.28227
upperback 4.26256 0.68746 2.59825
thorax 2.3202 0.602522 -0.285666
lowerneck -19.5877 -5.21494 -2.74334
upperneck 20.5587 -6.03368 -0.44063
head 9.83092 -2.96783 -0.537659
rclavicle 4.96962e-015 2.42517e-014
rhumerus -31.35 -14.6188 -74.0439
rradius 37.5212
rwrist 2.80314
rhand -6.06244 32.5949
rfingers 7.12502
rthumb 19.7723 3.58055
lclavicle 4.96962e-015 2.42517e-014
lhumerus -31.9833 2.81069 79.994
lradius 32.8774
lwrist 1.85993
lhand -18.5852 21.8102
lfingers 7.12502
lthumb 7.70556 51.6498
rfemur -11.787 8.19077 27.8088
rtibia 26.7415
rfoot -13.8017 -3.73158
rtoes 10.4761
lfemur -29.2507 12.3234 -10.8653
ltibia 66.5548
lfoot -4.69934 0.85099
ltoes -33.1654
52
root 4.01315 18.6568 26.1642 -174.926 4.36677 186.091
lowerback 3.97293 0.3248 5.40176
upperback 4.22356 0.886414 2.53773
thorax 2.15958 0.701588 -0.42185
lowerneck -18.9171 -5.3136 -2.81589
upperneck 20.4896 -6.1984 -0.257061
head 9.6949 -3.025 -0.464996
rclavicle -1.14798e-014 -5.22804e-014
rhumerus -30.9832 -14.4628 -73.7771
rradius 37.5716
rwrist 2.47564
rhand -5.28411 32.6627
rfingers 7.12502
rthumb 20.5204 3.72715
lclavicle -1.14798e-014 -5.22804e-014
lhumerus -32.908 3.08867 79.3708
lradius 32.4287
lwrist 2.05854
lhand -18.286 20.4215
lfingers 7.12502
lthumb 7.99433 50.2503
rfemur -10.9515 8.52651 28.19
rtibia 26.6902
rfoot -14.2667 -4.51756
rtoes 9.00996
lfemur -29.7726 12.2682 -10.469
ltibia 65.2471
lfoot -5.72419 0.61287
ltoes -29.4497
53
root 3.99953 18.6408 26.0144 -174.99 4.41643 186.167
lowerback 4.09893 0.421341 5.45241
upperback 4.13076 1.01937 2.4242
thorax 2.00261 0.761028 -0.573394
lowerneck -18.2212 -5.36836 -2.85152
upperneck 20.3909 -6.30731 -0.0959281
head 9.5415 -3.05678 -0.396701
rclavicle 2.48481e-015 1.92821e-014
rhumerus -30.681 -14.4528 -73.4333
rradius 37.6288
rwrist 2.00555
rhand -4.08079 32.7843
rfingers 7.12502
rthumb 21.6764 3.97781
lclavicle 2.48481e-015 1.92821e-014
lhumerus -33.8454 3.20825 78.805
lradius 31.93
lwrist 2.38991
lhand -18.9302 19.3922
lfingers 7.12502
lthumb 7.37252 49.2438
rfemur -10.1771 8.7002 28.3437
rtibia 26.4704
rfoot -14.4936 -4.83852
rtoes 9.94071
lfemur -30.424 12.0802 -10.3294
ltibia 63.7095
lfoot -6.88736 0.807096
ltoes -26.6613
